<svg id="svg" version="1.1" xmlns="http://www.w3.org/2000/svg" xmlns:xlink="http://www.w3.org/1999/xlink" width="400" height="399.2015968063872" viewBox="0, 0, 400,399.2015968063872"><g id="svgg"><path id="path0" d="M193.713 2.730 C 80.636 6.102,-6.380 104.353,3.708 217.265 C 12.586 316.636,94.542 393.697,194.212 396.393 C 305.444 399.401,396.825 310.637,396.805 199.601 C 396.785 88.346,305.039 -0.589,193.713 2.730 M209.708 7.788 C 221.994 8.488,233.455 10.138,244.568 12.806 C 247.386 13.482,247.904 13.663,247.822 13.941 C 247.769 14.123,246.056 20.514,244.016 28.144 C 241.977 35.773,240.273 42.116,240.230 42.238 C 240.178 42.389,239.062 42.207,236.793 41.679 C 212.466 36.018,183.600 36.180,161.085 42.105 C 160.266 42.321,159.579 42.479,159.558 42.456 C 159.392 42.275,151.869 13.733,151.963 13.639 C 152.611 12.991,168.647 9.925,176.248 8.996 C 186.763 7.711,199.983 7.234,209.708 7.788 M148.503 14.641 C 148.503 14.680,150.210 21.078,152.295 28.858 C 156.699 45.283,156.346 43.374,155.040 43.697 C 133.577 49.011,106.140 64.717,88.263 81.924 L 86.406 83.711 75.828 73.133 L 65.250 62.555 68.603 59.443 C 87.078 42.291,106.552 29.961,129.546 20.856 C 135.735 18.405,148.503 14.220,148.503 14.641 M252.972 14.983 C 282.598 23.593,310.503 39.567,331.800 60.107 L 334.358 62.575 323.816 73.089 L 313.273 83.603 310.579 81.096 C 291.294 63.151,271.186 51.784,244.112 43.524 C 243.770 43.420,243.633 43.253,243.676 42.993 C 243.744 42.589,251.042 15.241,251.195 14.820 C 251.311 14.499,251.303 14.498,252.972 14.983 M212.575 41.206 C 222.233 42.023,239.222 44.967,239.222 45.823 C 239.222 47.219,199.867 192.676,199.659 192.048 C 198.786 189.397,160.479 45.830,160.612 45.704 C 161.317 45.034,174.407 42.587,181.836 41.736 C 184.856 41.390,186.675 41.241,192.814 40.837 C 195.492 40.661,209.137 40.916,212.575 41.206 M176.731 120.014 C 187.553 160.387,196.407 193.485,196.407 193.566 C 196.407 193.646,172.201 169.506,142.615 139.920 C 113.029 110.334,88.822 86.078,88.822 86.017 C 88.822 85.869,94.235 80.885,96.507 78.939 C 113.239 64.616,132.676 53.927,153.432 47.635 C 155.387 47.043,157.002 46.570,157.021 46.584 C 157.040 46.598,165.909 79.641,176.731 120.014 M245.187 47.299 C 268.347 54.045,291.489 67.412,308.882 84.089 L 310.878 86.002 257.032 139.857 C 207.610 189.288,203.208 193.639,203.451 192.814 C 203.596 192.320,212.468 159.245,223.165 119.313 C 236.869 68.159,242.694 46.710,242.884 46.708 C 243.033 46.707,244.069 46.973,245.187 47.299 M82.324 87.867 C 65.192 105.647,51.831 128.597,44.605 152.657 C 43.839 155.206,43.561 155.895,43.321 155.831 C 25.730 151.132,14.861 148.224,14.828 148.207 C 14.655 148.119,17.626 138.684,19.191 134.349 C 28.041 109.843,41.380 88.100,59.646 68.404 L 62.755 65.051 73.336 75.632 L 83.917 86.213 82.324 87.867 M344.046 72.776 C 362.336 93.655,375.504 117.212,383.530 143.413 C 384.135 145.389,384.681 147.275,384.743 147.605 L 384.856 148.204 370.821 151.961 C 363.102 154.028,356.623 155.734,356.424 155.754 C 356.122 155.783,355.898 155.252,355.091 152.595 C 347.687 128.221,335.190 106.750,317.393 87.824 L 315.798 86.128 326.312 75.586 L 336.826 65.045 339.203 67.503 C 340.510 68.854,342.690 71.227,344.046 72.776 M140.120 142.415 L 193.912 196.208 192.216 195.744 C 191.282 195.489,158.206 186.620,118.713 176.036 C 77.419 164.969,46.906 156.697,46.906 156.569 C 46.906 156.446,47.446 154.626,48.105 152.523 C 55.520 128.887,66.954 109.320,84.321 90.553 C 85.304 89.491,86.157 88.623,86.218 88.623 C 86.278 88.623,110.534 112.829,140.120 142.415 M315.924 91.168 C 332.188 108.520,344.272 129.184,351.381 151.796 C 352.071 153.992,352.689 156.013,352.754 156.287 L 352.873 156.786 279.580 176.427 C 239.269 187.230,206.153 196.109,205.988 196.160 C 205.823 196.210,229.895 172.034,259.481 142.437 C 289.067 112.839,313.333 88.623,313.406 88.623 C 313.479 88.623,314.613 89.768,315.924 91.168 M29.841 155.795 C 36.757 157.640,42.484 159.208,42.569 159.279 C 42.653 159.351,42.413 160.705,42.034 162.289 C 36.317 186.212,36.351 213.037,42.130 237.306 C 42.454 238.668,42.682 239.820,42.636 239.865 C 42.517 239.984,14.439 247.505,14.115 247.505 C 13.929 247.505,13.583 246.396,13.009 243.962 C 6.413 216.003,6.072 187.710,11.992 159.681 C 12.555 157.011,13.667 152.311,13.864 151.762 C 13.924 151.594,14.412 151.656,15.607 151.985 C 16.519 152.236,22.925 153.951,29.841 155.795 M386.721 155.190 C 393.742 185.548,393.510 219.751,386.104 246.519 L 385.797 247.628 372.190 243.982 C 364.706 241.977,358.210 240.233,357.754 240.108 C 356.944 239.884,356.930 239.865,357.109 239.251 C 363.397 217.663,363.438 183.622,357.203 160.329 C 357.049 159.753,356.937 159.279,356.954 159.277 C 356.972 159.274,363.453 157.535,371.357 155.412 C 381.098 152.796,385.769 151.623,385.856 151.774 C 385.925 151.896,386.315 153.433,386.721 155.190 M121.407 180.353 C 160.681 190.879,192.813 199.539,192.811 199.596 C 192.810 199.654,168.895 206.105,139.668 213.932 C 110.440 221.760,77.391 230.613,66.226 233.606 L 45.925 239.048 45.233 236.141 C 39.541 212.235,39.574 186.501,45.326 162.644 L 45.935 160.119 47.967 160.667 C 49.085 160.968,82.133 169.827,121.407 180.353 M354.385 162.575 C 360.079 185.959,360.135 212.387,354.540 235.895 C 353.821 238.913,353.804 238.954,353.303 238.874 C 352.456 238.739,207.096 199.754,206.950 199.623 C 206.875 199.556,239.839 190.646,280.203 179.824 C 320.567 169.002,353.651 160.199,353.721 160.263 C 353.792 160.327,354.090 161.367,354.385 162.575 M140.122 256.784 L 86.332 310.574 84.969 309.229 C 72.470 296.898,59.471 276.688,52.209 258.299 C 50.106 252.974,46.680 242.674,46.929 242.426 C 47.009 242.347,193.359 203.052,193.712 203.015 C 193.822 203.003,169.707 227.200,140.122 256.784 M279.641 222.768 C 319.875 233.546,352.815 242.382,352.841 242.403 C 352.931 242.478,350.715 249.627,349.836 252.100 C 343.271 270.560,334.270 286.385,321.834 301.331 C 319.351 304.315,313.650 310.579,313.416 310.579 C 313.338 310.579,289.067 286.364,259.481 256.767 C 229.895 227.171,205.868 203.005,206.088 203.064 C 206.307 203.124,239.406 211.991,279.641 222.768 M176.763 279.032 C 165.956 319.348,157.062 352.385,157.000 352.447 C 156.700 352.748,146.241 349.271,140.519 346.968 C 122.228 339.606,104.216 328.042,90.859 315.087 L 88.803 313.093 142.547 259.349 C 172.106 229.790,196.318 205.633,196.352 205.667 C 196.386 205.701,187.571 238.715,176.763 279.032 M309.082 314.905 C 292.083 331.016,271.759 343.185,249.813 350.394 C 245.286 351.881,242.753 352.617,242.650 352.476 C 242.618 352.431,234.567 322.440,224.759 285.828 C 214.951 249.217,206.098 216.174,205.085 212.401 L 203.244 205.540 257.061 259.371 L 310.878 313.203 309.082 314.905 M219.838 280.837 C 230.537 320.742,239.255 353.427,239.211 353.470 C 239.167 353.514,238.074 353.804,236.781 354.115 C 215.979 359.117,193.706 359.792,172.394 356.067 C 167.734 355.253,160.830 353.711,160.539 353.420 C 160.467 353.347,199.016 209.073,199.745 206.687 C 199.837 206.385,199.931 206.532,200.127 207.285 C 200.270 207.834,209.140 240.933,219.838 280.837 M43.914 244.162 C 49.575 266.271,63.923 291.564,81.514 310.445 L 83.900 313.005 73.362 323.545 L 62.823 334.084 60.882 332.062 C 40.371 310.694,24.694 283.908,16.178 255.681 C 15.406 253.122,14.796 251.011,14.822 250.990 C 14.921 250.914,43.223 243.339,43.455 243.326 C 43.588 243.319,43.795 243.695,43.914 244.162 M370.520 247.123 C 378.336 249.218,384.768 250.970,384.813 251.015 C 385.360 251.557,379.062 269.295,375.393 277.545 C 366.381 297.814,351.188 320.254,337.589 333.379 L 336.817 334.124 326.298 323.599 L 315.778 313.074 318.191 310.479 C 335.504 291.859,347.998 270.225,355.076 246.607 C 356.129 243.094,356.054 243.313,356.192 243.313 C 356.257 243.313,362.704 245.028,370.520 247.123 M89.188 318.114 C 105.694 333.457,124.011 344.627,145.291 352.323 C 148.394 353.445,155.531 355.689,155.999 355.689 C 156.174 355.689,148.658 384.343,148.421 384.580 C 148.385 384.616,146.394 384.051,143.995 383.326 C 115.440 374.691,89.434 359.492,67.283 338.492 L 65.316 336.627 75.821 326.098 C 81.599 320.307,86.354 315.569,86.388 315.569 C 86.423 315.569,87.682 316.714,89.188 318.114 M332.100 338.797 C 312.725 357.405,288.022 372.427,262.475 381.136 C 257.130 382.958,251.441 384.658,251.285 384.479 C 251.214 384.398,249.477 378.044,247.425 370.359 C 245.373 362.675,243.651 356.240,243.597 356.059 C 243.521 355.803,243.730 355.678,244.554 355.484 C 250.332 354.127,262.666 349.382,271.007 345.308 C 286.371 337.804,297.897 329.777,312.043 316.730 L 313.273 315.595 323.816 326.111 L 334.359 336.627 332.100 338.797 M161.640 357.173 C 166.060 358.287,173.706 359.697,178.942 360.365 C 198.358 362.841,219.835 361.693,238.024 357.206 C 239.122 356.936,240.076 356.775,240.144 356.850 C 240.212 356.925,241.947 363.273,243.998 370.958 C 246.049 378.643,247.770 385.076,247.822 385.255 C 247.884 385.472,247.764 385.614,247.461 385.681 C 247.211 385.737,245.659 386.100,244.012 386.488 C 218.072 392.602,190.515 393.230,164.271 388.305 C 160.433 387.584,152.120 385.720,151.939 385.539 C 151.882 385.481,153.479 379.303,155.489 371.809 C 157.499 364.315,159.230 357.847,159.336 357.435 C 159.443 357.023,159.570 356.687,159.619 356.687 C 159.668 356.687,160.578 356.906,161.640 357.173 " stroke="none" fill="#cccccc" fill-rule="evenodd"></path><path id="path1" d="M202.800 14.186 C 200.968 15.017,200.061 16.040,199.374 18.054 C 199.185 18.609,199.023 18.882,199.014 18.663 C 198.821 13.839,190.706 12.370,189.214 16.888 C 188.274 19.736,191.479 24.253,192.715 21.822 C 192.928 21.402,193.131 21.005,193.164 20.941 C 193.197 20.877,192.857 20.715,192.408 20.580 C 190.161 19.907,189.296 17.850,190.678 16.468 C 192.725 14.421,195.851 15.373,197.233 18.463 C 197.677 19.456,197.930 23.214,197.989 29.691 L 198.004 31.337 199.524 31.337 L 201.045 31.337 200.924 29.890 C 200.634 26.412,200.709 19.090,201.043 18.363 C 202.567 15.045,205.740 14.092,207.661 16.375 C 208.776 17.701,207.394 20.160,205.533 20.160 C 204.961 20.160,204.990 20.486,205.637 21.329 C 206.993 23.093,208.982 21.057,208.982 17.904 C 208.982 14.640,205.894 12.783,202.800 14.186 M286.292 34.983 C 286.311 36.966,285.990 38.492,285.165 40.359 L 284.674 41.468 283.640 41.264 C 282.694 41.077,282.567 41.096,282.171 41.494 C 281.644 42.022,281.853 42.213,283.178 42.411 L 284.054 42.543 283.515 43.477 C 282.262 45.653,281.027 46.892,279.242 47.767 L 277.944 48.403 279.042 48.467 C 281.471 48.609,284.793 46.732,286.233 44.403 L 286.655 43.719 287.489 44.139 C 288.829 44.814,288.825 44.805,288.376 45.965 C 287.478 48.280,287.696 51.984,288.835 53.780 C 289.472 54.784,289.936 55.022,289.616 54.179 C 289.091 52.799,289.435 50.318,290.464 48.054 C 291.184 46.472,291.292 46.439,292.225 47.524 L 292.934 48.347 293.165 47.594 C 293.389 46.862,293.374 46.820,292.612 46.058 L 291.829 45.275 292.522 44.244 C 293.559 42.704,295.510 40.819,296.726 40.184 C 298.175 39.427,298.085 39.251,296.307 39.365 C 294.134 39.504,292.248 40.472,290.596 42.293 L 289.364 43.653 288.445 43.150 C 287.939 42.873,287.502 42.632,287.475 42.614 C 287.447 42.596,287.604 41.878,287.824 41.019 C 288.478 38.460,288.247 36.127,287.154 34.262 C 286.358 32.903,286.274 32.974,286.292 34.983 M112.468 40.080 C 112.451 44.250,107.964 46.755,103.912 44.857 C 102.469 44.182,102.350 44.253,103.312 45.215 C 104.379 46.282,105.618 46.787,107.193 46.798 L 108.498 46.806 108.056 47.605 C 105.284 52.613,110.060 58.265,115.503 56.417 C 121.807 54.276,120.236 44.673,113.573 44.622 L 112.076 44.611 112.475 43.812 C 112.916 42.931,113.065 39.133,112.675 38.743 C 112.542 38.610,112.473 39.056,112.468 40.080 M114.316 46.993 C 119.243 49.220,119.663 55.314,114.870 55.044 C 109.761 54.755,106.153 48.502,110.046 46.683 C 111.176 46.155,112.706 46.266,114.316 46.993 M355.339 97.138 C 354.359 97.485,354.216 97.776,355.087 97.648 C 357.106 97.352,357.082 97.772,354.890 101.176 C 351.440 106.534,351.772 107.027,358.278 106.189 C 362.519 105.642,362.429 105.473,360.110 109.658 C 357.328 114.679,357.721 116.337,361.423 115.192 C 363.468 114.560,364.094 113.985,362.297 114.389 C 360.211 114.857,360.218 114.335,362.346 110.494 C 365.355 105.062,364.943 104.287,359.424 104.998 C 357.754 105.213,356.098 105.389,355.745 105.389 C 354.859 105.389,354.732 105.656,358.338 99.957 C 359.905 97.480,358.392 96.058,355.339 97.138 M348.239 100.889 C 347.119 101.288,347.121 101.397,348.246 101.397 C 349.953 101.397,349.930 101.554,347.701 105.095 C 344.407 110.328,344.812 110.881,351.297 110.002 C 355.347 109.452,355.296 109.344,352.965 113.552 C 349.999 118.907,350.861 120.774,355.298 118.606 L 356.587 117.976 355.589 118.108 C 353.005 118.450,352.994 118.340,355.224 114.371 C 358.380 108.755,357.874 108.078,351.198 108.982 C 349.576 109.202,348.217 109.381,348.177 109.381 C 347.841 109.381,348.341 108.310,349.622 106.287 C 352.033 102.480,352.228 101.959,351.585 101.042 C 351.214 100.512,349.514 100.434,348.239 100.889 M46.008 101.596 C 45.393 102.518,38.964 113.881,39.024 113.941 C 39.064 113.980,39.301 113.869,39.552 113.693 C 40.392 113.105,40.944 113.339,47.352 116.992 C 54.024 120.797,54.109 120.864,53.810 122.056 C 53.513 123.240,54.192 122.201,57.485 116.432 C 61.069 110.154,61.260 109.780,60.893 109.780 C 60.775 109.780,60.679 109.856,60.679 109.948 C 60.679 110.040,60.450 110.220,60.170 110.347 C 59.551 110.629,60.047 110.872,52.794 106.735 C 46.515 103.152,46.353 103.035,46.268 102.021 C 46.221 101.462,46.162 101.365,46.008 101.596 M51.392 109.423 C 58.004 113.189,58.084 113.242,58.084 113.886 C 58.084 114.789,56.073 117.968,55.508 117.959 C 55.053 117.951,42.480 110.712,42.228 110.313 C 41.983 109.925,43.231 107.366,44.162 106.347 C 44.844 105.600,44.192 105.322,51.392 109.423 M22.308 188.023 C 16.813 189.678,16.737 202.329,22.198 206.218 C 23.016 206.800,23.070 206.582,22.383 205.461 C 19.682 201.048,19.709 192.999,22.432 190.922 C 25.532 188.558,28.942 192.760,25.960 195.269 C 24.889 196.170,22.455 195.824,22.028 194.709 C 21.808 194.137,21.579 194.416,21.785 195.005 C 22.380 196.714,24.748 197.633,26.434 196.809 C 29.311 195.405,28.940 189.599,25.886 188.213 C 25.009 187.815,23.301 187.724,22.308 188.023 M30.739 189.110 C 30.739 189.164,31.005 189.628,31.330 190.141 C 33.395 193.397,34.033 200.444,32.529 203.393 C 30.909 206.568,26.743 206.080,26.748 202.715 C 26.751 200.030,29.582 198.857,31.480 200.755 L 32.198 201.473 32.053 200.886 C 31.408 198.269,27.389 197.798,25.991 200.176 C 23.458 204.484,27.914 209.600,32.254 207.366 C 35.951 205.464,36.864 196.880,33.885 192.036 C 33.057 190.689,30.739 188.533,30.739 189.110 M385.629 189.711 C 385.629 190.483,386.108 192.078,386.524 192.691 L 386.988 193.376 386.538 194.043 C 385.948 194.916,385.640 195.892,385.469 197.423 L 385.329 198.670 384.607 197.588 C 383.551 196.009,382.308 194.670,381.210 193.931 C 380.679 193.573,379.979 192.914,379.655 192.466 C 378.713 191.165,376.799 190.016,375.589 190.024 L 374.950 190.029 375.752 190.393 C 376.193 190.594,376.995 191.198,377.534 191.736 L 378.514 192.715 376.932 192.829 C 372.918 193.119,370.906 196.543,372.043 201.147 C 373.846 208.446,383.145 205.384,381.589 198.004 C 381.291 196.590,385.932 201.901,388.523 205.938 C 389.657 207.706,389.687 207.512,388.710 204.710 C 386.816 199.275,386.802 196.986,388.648 194.222 C 389.099 193.546,389.435 192.976,389.394 192.954 C 389.354 192.932,389.007 192.744,388.623 192.537 C 387.644 192.008,386.874 191.260,386.291 190.269 C 385.755 189.360,385.629 189.254,385.629 189.711 M379.403 196.088 C 379.987 196.390,380.294 197.095,380.552 198.732 C 381.102 202.213,376.353 204.150,373.722 201.519 C 370.567 198.364,375.214 193.922,379.403 196.088 M49.556 276.153 C 48.357 277.351,48.905 279.641,50.390 279.641 C 51.560 279.641,51.924 277.899,50.887 277.268 C 50.164 276.828,50.491 276.247,51.461 276.248 C 53.193 276.251,54.420 278.440,53.589 280.046 C 52.984 281.216,52.447 281.337,47.804 281.342 C 40.448 281.351,38.436 283.554,40.951 288.848 C 42.955 293.068,44.950 293.664,48.204 291.016 C 51.247 288.541,53.119 288.284,53.994 290.223 C 54.614 291.600,53.648 292.854,51.967 292.854 C 51.146 292.854,51.134 292.919,51.886 293.308 C 54.038 294.421,56.012 292.038,54.879 289.696 C 53.295 286.426,50.129 286.176,46.556 289.041 C 44.357 290.804,43.032 290.788,41.862 288.983 C 39.577 285.460,42.131 283.569,49.033 283.673 C 54.448 283.754,55.489 283.211,55.489 280.303 C 55.489 276.616,51.725 273.983,49.556 276.153 M353.333 278.440 C 352.971 278.526,352.628 278.643,352.571 278.700 C 352.514 278.757,352.956 280.182,353.554 281.867 C 354.774 285.305,354.757 285.411,353.049 285.122 C 352.318 284.999,352.295 285.012,352.295 285.588 C 352.295 286.274,352.623 286.419,354.192 286.426 L 355.190 286.431 356.886 291.241 C 358.981 297.180,358.871 296.715,358.083 296.307 C 357.132 295.815,357.187 295.952,358.745 297.959 C 360.404 300.097,360.351 300.129,360.574 296.863 L 360.708 294.910 360.201 295.709 C 359.922 296.148,359.690 296.454,359.687 296.389 C 359.683 296.324,359.098 294.034,358.386 291.299 C 356.853 285.415,356.885 285.754,357.834 285.460 C 359.161 285.049,359.581 284.599,359.143 284.058 L 358.778 283.607 357.682 284.115 C 357.080 284.394,356.567 284.557,356.543 284.477 C 356.500 284.332,355.530 280.713,355.100 279.092 C 354.857 278.176,354.698 278.117,353.333 278.440 M107.857 339.049 C 107.930 339.583,108.043 340.604,108.107 341.317 L 108.223 342.615 106.566 343.385 C 103.976 344.589,101.735 347.075,101.592 348.902 C 101.513 349.902,101.603 350.476,101.880 350.754 C 102.125 350.999,102.111 351.116,101.782 351.616 C 100.437 353.656,103.059 356.930,105.387 356.119 C 105.900 355.940,105.954 355.968,106.056 356.477 C 106.347 357.931,108.181 359.157,109.906 359.049 L 110.979 358.982 110.978 359.593 C 110.978 360.902,113.307 362.272,114.654 361.755 C 115.128 361.573,115.034 361.277,114.502 361.277 C 113.950 361.277,113.373 360.707,113.373 360.162 C 113.373 359.951,114.720 357.591,116.366 354.918 C 118.013 352.246,119.310 349.979,119.250 349.882 C 119.058 349.570,117.384 348.668,117.204 348.779 C 117.109 348.838,115.736 350.996,114.154 353.575 C 110.823 359.005,110.693 359.120,109.132 358.038 C 108.258 357.433,108.410 357.051,111.570 351.907 C 113.213 349.233,114.515 346.978,114.464 346.895 C 114.413 346.812,113.957 346.502,113.451 346.205 C 112.313 345.538,112.636 345.205,109.576 350.200 C 105.954 356.112,105.649 356.378,104.176 354.906 C 103.108 353.837,103.601 352.295,105.012 352.295 C 105.622 352.295,105.957 352.142,106.584 351.575 C 108.008 350.289,108.648 348.589,109.130 344.817 L 109.281 343.626 110.379 343.071 C 110.983 342.766,111.949 342.365,112.525 342.180 C 113.742 341.789,113.775 341.722,112.979 341.252 C 112.377 340.897,111.611 341.057,109.331 342.012 C 109.032 342.138,108.982 342.043,108.982 341.349 C 108.982 339.957,108.589 338.540,108.136 338.298 C 107.739 338.085,107.729 338.112,107.857 339.049 M108.180 345.060 C 108.162 349.070,105.319 352.833,103.761 350.909 C 102.788 349.707,104.072 347.130,106.558 345.296 C 108.154 344.118,108.185 344.114,108.180 345.060 M291.256 348.117 L 290.196 348.724 291.379 350.959 C 296.215 360.091,296.077 359.673,294.501 360.424 C 293.276 361.008,293.052 360.746,290.196 355.389 C 288.791 352.754,287.607 350.509,287.564 350.399 C 287.520 350.287,286.982 350.444,286.339 350.755 C 285.438 351.192,285.220 351.385,285.323 351.654 C 285.395 351.842,286.565 354.077,287.924 356.620 C 290.379 361.216,290.488 361.454,290.443 362.129 C 290.413 362.572,289.289 363.272,288.604 363.273 C 287.873 363.274,287.783 363.138,284.844 357.585 C 283.392 354.840,281.925 352.304,281.584 351.949 C 278.768 349.011,272.158 352.338,274.361 355.584 C 274.844 356.296,274.852 356.353,274.529 356.711 C 274.093 357.192,274.049 357.163,276.048 357.742 C 278.130 358.346,278.066 358.423,277.043 356.547 C 275.992 354.617,276.084 354.703,275.648 355.242 C 275.239 355.746,274.816 355.525,274.543 354.665 C 274.229 353.676,276.350 352.120,277.674 352.369 C 279.049 352.627,279.681 353.470,282.547 358.882 C 285.490 364.440,285.968 365.070,287.235 365.070 C 288.840 365.070,290.815 363.590,290.818 362.385 C 290.818 362.083,290.872 362.049,291.058 362.236 C 292.093 363.271,295.804 361.386,295.808 359.823 C 295.808 359.521,295.873 359.502,296.237 359.696 C 297.379 360.307,299.621 359.304,299.966 358.027 C 300.176 357.250,300.117 357.140,299.709 357.548 C 298.567 358.690,298.220 358.303,295.100 352.402 C 293.678 349.713,292.470 347.512,292.415 347.511 C 292.360 347.510,291.838 347.782,291.256 348.117 M191.617 368.424 L 191.617 369.410 194.361 369.533 C 195.871 369.601,199.104 369.715,201.547 369.786 L 205.988 369.915 205.988 369.005 C 205.988 367.843,206.408 367.913,198.603 367.759 C 195.145 367.691,192.158 367.590,191.966 367.536 C 191.667 367.452,191.617 367.581,191.617 368.424 M191.417 372.027 L 191.417 373.054 192.579 373.054 L 193.740 373.054 192.889 373.968 C 188.436 378.750,193.103 386.117,199.914 385.057 C 204.916 384.278,207.474 378.273,204.477 374.346 L 203.795 373.453 204.792 373.453 L 205.788 373.453 205.788 372.455 L 205.788 371.457 202.923 371.457 L 200.057 371.457 200.998 372.405 C 203.931 375.362,203.546 381.867,200.328 383.717 C 194.821 386.883,191.349 376.763,196.346 372.109 L 197.261 371.257 195.866 371.257 C 195.099 371.257,193.784 371.199,192.944 371.128 L 191.417 370.999 191.417 372.027 " stroke="none" fill="#040404" fill-rule="evenodd"></path><path id="path2" d="" stroke="none" fill="#98d068" fill-rule="evenodd"></path><path id="path3" d="" stroke="none" fill="#98d068" fill-rule="evenodd"></path><path id="path4" d="" stroke="none" fill="#98d068" fill-rule="evenodd"></path><path id="path5" d="" stroke="none" fill="#98d068" fill-rule="evenodd"></path><path id="path6" d="" stroke="none" fill="#98d068" fill-rule="evenodd"></path><path id="path7" d="" stroke="none" fill="#98d068" fill-rule="evenodd"></path><path id="path8" d="" stroke="none" fill="#98d068" fill-rule="evenodd"></path></g></svg>